<svg xmlns="http://www.w3.org/2000/svg" version="1.1" width="600px" height="600px" viewBox="0 0 200 200" style="overflow:hidden!important;"><g id="svga-group-wrapper"><g id="svga-group-backs-single"></g><g id="svga-group-humanwrap-move" transform="matrix(1,0,0,1,0,0)"><g id="svga-group-humanwrap"><g id="svga-group-hair-back-move" transform="matrix(1,0,0,1,0,0)"><g id="svga-group-hair-back"></g></g><g id="svga-group-humanbody-back"><path id="SvgjsPath7583" d="m168.2 200-4.6-14.2-34.9-13.4-10.8-9.7-1.4-50.5h-33l-1.4 50.5-10.8 9.7-34.9 13.4-4.6 14.2-3 20h142.4z" fill="#d79468" stroke-width="none" opacity="1" stroke="none"></path><path id="SvgjsPath7584" d="m83.5 112.2-1.4 50.5-10.8 9.7-34.9 13.4-4.6 14.2-3 20H39v-20l1.7-13.3 32.1-12.9 14.1-9.5 2-52.1z" fill="#b86934" stroke-width="none" opacity="1" stroke="none"></path></g><g id="svga-group-chinshadow-single"><path id="SvgjsPath7579" d="m117.5 151.4-1.1-39.3H83.5l-1.2 44.3c3.4 1.7 11 5.4 14.9 5.4 5.2 0 16.6-6.3 16.6-6.3 1.3-1.2 2.5-2.6 3.7-4.1z" fill="#a9561f" stroke-width="none" opacity="1" stroke="none"></path></g><g id="svga-group-humanbody-front"></g><g id="svga-group-clothes-single"><path id="SvgjsPath8038" d="m168.9 200-4.8-14.6-35-13.5-10.8-9.6-.5-14.9-.5-1.1-5.3 2.7-12.1 1.7-12-1.7-5.3-2.7-.5 1.1-.5 14.9-10.8 9.6-35 13.5L31 200l-3 20h144l-3.1-20zm-64.6 3.2h-8.8l-7.9-8.7L93 167l6.9 1.1 6.9-1.1 5.4 27.5-7.9 8.7z" fill="#1e2222" stroke-width="none" opacity="1"></path><path id="SvgjsPath8039" d="m168.9 200-4.8-14.6-35-13.5-10.8-9.5-.5-14.9-.1-.3-3.8 3.1.4 14.6 12 11.8 34.5 11 4.8 13 3.5 19.3h2.9z" fill="#303131" stroke-width="none" opacity="1"></path><path id="SvgjsPath8040" d="m151.9 195.9-3.8 13.4-.5 10.7h1.5v-10.1l3.5-13.1 6.6-9.1-7.3 8.2zm-52-28.4-8.2-1.4-5.2 28.8 8.6 9.4h9.6l8.6-9.4-5.2-28.8-8.2 1.4zm4.4 35.7h-8.8l-7.9-8.7L93 167l6.9 1.1 6.9-1.1 5.4 27.5-7.9 8.7zM112 149l-12.1 1.7-12-1.7-5.3-2.7-.4.9-.1.2-.5 14.9-10.8 9.6-35 13.5L31 200l-3 20h8l1.7-20 4.8-10.1 5 6.9 3.5 13.1V220h1.5l-.5-10.7-4-13.4-5.5-6.2.1-.3 29.5-11.2 15.6-12.1.1-15.6c1.8 1 3.1 1.8 3.1 1.8l18.5-.2 7.9-5.3-.1-.3-5.2 2.5z" fill="#0f1313" stroke-width="none" opacity="1"></path></g><g id="svga-group-head" transform="matrix(1,0,0,1,0,0)"><g id="svga-group-ears-left-move" transform="matrix(1,0,0,1,0,0)"><g id="svga-group-ears-left"><path id="SvgjsPath7533" d="M64.1 91.8s-6-.7-10.6-3.7c0 0-3.5 9.4-4 14.4 0 0 6.7 13 10 18.5 0 0 5.2-.7 6.3-1.4l1.4-8.4-3.1-19.4z" fill="#d79468" stroke-width="none" opacity="1" stroke="none"></path><path id="SvgjsPath7534" d="M54.3 90c-.2-.4-.8-1.9-.8-1.9 5.2.4 10.7 1.4 10.7 1.4l3 21.7-1.4 8.4c-1.1.7-6.3 1.4-6.3 1.4-.6-1-1.3-2.4-2.1-3.7l2.6 1 3-1.6s.7-11.2.5-11.5c-.1-.3-9-14.8-9.2-15.2z" fill="#c87d4d" stroke-width="none" opacity="1" stroke="none"></path><path id="SvgjsPath7535" d="m51.3 100.9 2.8-5.5 5.2 6.8 2.2 9.5-1.4 1.9-4.3-7.6 1-4.7-2.6-4z" fill="#b86934" stroke-width="none" opacity="1" stroke="none"></path></g></g><g id="svga-group-ears-right-move" transform="matrix(1,0,0,1,0,0)"><g id="svga-group-ears-right"><path id="SvgjsPath7536" d="M135.9 91.8s6-.7 10.6-3.7c0 0 3.5 9.4 4 14.4 0 0-6.7 13-10 18.5 0 0-5.2-.7-6.3-1.4l-1.4-8.4 3.1-19.4z" fill="#d79468" stroke-width="none" opacity="1" stroke="none"></path><path id="SvgjsPath7537" d="M145.7 90c.2-.4.8-1.9.8-1.9-5.2.4-10.7 1.4-10.7 1.4l-3 21.73 1.4 8.37c1.1.7 6.3 1.4 6.3 1.4.6-1 1.3-2.4 2.1-3.7l-2.6 1-3-1.6s-.7-11.2-.5-11.5c.1-.3 9-14.8 9.2-15.2z" fill="#c87d4d" stroke-width="none" opacity="1" stroke="none"></path><path id="SvgjsPath7538" d="m148.7 100.9-2.8-5.5-5.2 6.8-2.2 9.5 1.4 1.9 4.3-7.6-1-4.7 2.6-4z" fill="#b86934" stroke-width="none" opacity="1" stroke="none"></path></g></g><g id="svga-group-faceshape-wrap"><g id="svga-group-faceshape-single"><path id="SvgjsPath7565" d="M136.8 61c-6.7-11.2-19-18.9-19-18.9-7-1.5-17.8-2.2-17.8-2.2s-10.8.8-17.8 2.2c0 0-12.4 7.6-19 18.9 0 0-5 14-5.2 23.9 0 0 2.6 23.7 5.8 34 0 0 9.9 19.8 19.6 29.7 0 0 11.5 6.3 16.6 6.3s16.6-6.3 16.6-6.3c9.7-9.9 19.6-29.7 19.6-29.7 3.1-10.3 5.8-34 5.8-34-.3-9.8-5.2-23.9-5.2-23.9z" fill="#d79468" stroke-width="none" opacity="1" stroke="none"></path><path id="SvgjsPath7566" d="m85.8 45.6 28.8-.8L136.8 61c-6.7-11.2-19-18.9-19-18.9-7-1.5-17.8-2.2-17.8-2.2s-10.8.8-17.8 2.2c0 0-12.4 7.6-19 18.9 0 0-5 14-5.2 23.9 0 0 2.6 23.7 5.8 34 0 0 9.9 19.8 19.6 29.7 0 0 11.5 6.3 16.6 6.3-4.1-.5-15.3-8.6-15.3-8.6-3.3-4.7-15.2-28-15.2-28-2.5-6.4-6.6-34.9-6.6-34.9.3-3.3 4.4-20.5 4.4-21.3s18.5-16.5 18.5-16.5z" fill="#b86934" stroke-width="none" opacity="1" stroke="none"></path></g></g><g id="svga-group-mouth-single-move" transform="matrix(1,0,0,1,0,0)"><g id="svga-group-mouth-single"><path id="SvgjsPath7523" d="m86.12 128.47 10.5-2.08 3.9 2.03 3.33-2.19 11.79 2.28-8.05 7.56-6.99 1.62-6.5-1.54z" fill="#da7c87" stroke-width="none" opacity="1" transform="translate(0 3)" stroke="none"></path><path id="SvgjsPath7524" d="m84.99 128.26 15.53 3.17 16.59-3.17-16.75 2.36z" fill="#cb5f6c" stroke-width="none" opacity="1" transform="translate(0 3)" stroke="none"></path></g></g><g id="svga-group-eyes-left-move" transform="matrix(1,0,0,1,0,0)"><g id="svga-group-eyes-left"><g id="svga-group-eyesback-left"><path id="SvgjsPath7639" d="m90.6 103.9-3.9-7s-12.7-.2-17.6.2c0 0 7.4 5.5 9.3 6.7 0 0 8.1.3 12.2.1z" fill="#ffffff" stroke-width="none" opacity="1"></path></g><g id="svga-group-eyesiriswrapper-left" transform="matrix(1,0,0,1,0,0)"><g id="svga-group-eyesiriscontrol-left" transform="matrix(1,0,0,1,0,0)"><g id="svga-group-eyesiris-left"><path id="SvgjsPath7599" d="m82.59 104.53-4.96-1.82-.91-5.21 4.06-3.39 4.96 1.82.91 5.21z" fill="#4e60a3" stroke-width="none" opacity="1"></path><path id="SvgjsPath7600" d="m78.98 100.2.59-2.78 2.71-.88 2.11 1.9-.59 2.78-2.71.88z" fill="#000000" stroke-width="none" opacity="1"></path><path id="SvgjsPath7601" d="m78.88 96.88 1.96 1.88.55-.39-1.1-2.43z" fill="#ffffff" stroke-width="none" opacity="1"></path><path id="SvgjsPath7602" d="m82.49 101.12.47.86.78-.31-.39-.95z" fill="#ffffff" stroke-width="none" opacity="1"></path></g></g></g><g id="svga-group-eyesfront-left"><path id="SvgjsPath7647" d="M68 94.5v11.1l7.7 7.9h10.9l7.7-7.9V94.5l-7.7-7.9H75.7L68 94.5zm1.1 2.6c4.9-.4 17.6-.2 17.6-.2l3.9 7c-4.1.3-12.2-.1-12.2-.1-1.9-1.3-9.3-6.7-9.3-6.7z" fill="#d79468" stroke-width="none" opacity="1" stroke="none"></path><path id="SvgjsPath7648" d="m93.4 106.5-1 .3-2-2.1-12.2-.5-4.2-3.5 4.5 2.8 11.7.2z" fill="#c87d4d" stroke-width="none" opacity="1" stroke="none"></path><path id="SvgjsPath7649" d="m68.1 97.2-5.2-2.6 4.9 1.3h2.3L66 93.6l6.5 2.4 3.2.1-5.6-2.6 7.5 2.6 10 .2 5.8 10.2-3.2-2.8-3.4-6.1-16.9-.2 8.6 6.1z" fill="#000000" stroke-width="none" opacity="1" stroke="none"></path></g></g></g><g id="svga-group-eyes-right-move" transform="matrix(1,0,0,1,0,0)"><g id="svga-group-eyes-right"><g id="svga-group-eyesback-right"><path id="SvgjsPath7640" d="m109.4 103.9 3.9-7s12.7-.2 17.6.2c0 0-7.4 5.5-9.3 6.7 0 0-8.1.3-12.2.1z" fill="#ffffff" stroke-width="none" opacity="1"></path></g><g id="svga-group-eyesiriswrapper-right" transform="matrix(1,0,0,1,0,0)"><g id="svga-group-eyesiriscontrol-right" transform="matrix(1,0,0,1,0,0)"><g id="svga-group-eyesiris-right"><path id="SvgjsPath7603" d="m119.22 104.53-4.96-1.82-.91-5.21 4.06-3.39 4.96 1.82.91 5.21z" fill="#4e60a3" stroke-width="none" opacity="1"></path><path id="SvgjsPath7604" d="m115.61 100.2.59-2.78 2.71-.88 2.11 1.9-.59 2.78-2.71.88z" fill="#000000" stroke-width="none" opacity="1"></path><path id="SvgjsPath7605" d="m115.51 96.88 1.96 1.88.55-.39-1.1-2.43z" fill="#ffffff" stroke-width="none" opacity="1"></path><path id="SvgjsPath7606" d="m119.12 101.12.47.86.78-.31-.39-.95z" fill="#ffffff" stroke-width="none" opacity="1"></path></g></g></g><g id="svga-group-eyesfront-right"><path id="SvgjsPath7650" d="M124.3 86.6h-10.9l-7.7 7.9v11.1l7.7 7.9h10.9l7.7-7.9V94.5l-7.7-7.9zm-2.7 17.2s-8.1.4-12.2.1l3.9-7s12.7-.2 17.6.2c0 0-7.4 5.4-9.3 6.7z" fill="#d79468" stroke-width="none" opacity="1" stroke="none"></path><path id="SvgjsPath7653" d="m106.6 106.5 1 .3 2-2.1 12.2-.5 4.2-3.5-4.5 2.8-11.7.2z" fill="#c87d4d" stroke-width="none" opacity="1" stroke="none"></path><path id="SvgjsPath7654" d="m131.9 97.2 5.2-2.6-4.9 1.3h-2.3l4.1-2.3-6.5 2.4-3.2.1 5.6-2.6-7.5 2.6-10 .2-5.8 10.2 3.2-2.8 3.4-6.1 16.9-.2-8.6 6.1z" fill="#000000" stroke-width="none" opacity="1" stroke="none"></path></g></g></g><g id="svga-group-facehighlight-single"></g><g id="svga-group-eyebrows-left-move" transform="matrix(1,0,0,1,0,0)"><g id="svga-group-eyebrows-left-rotate" transform="matrix(1,1.7453292519943295e-9,-1.7453292519943295e-9,1,1.5158184396568686e-7,-1.3953906830010965e-7)"><g id="svga-group-eyebrows-left"><path id="SvgjsPath7692" d="m92.2 87.2-1.7 3.5-14.6-4.1-8.2 2 5.9-5 3-.6z" fill="#2a232b" stroke-width="none" opacity="1"></path><path id="SvgjsPath7693" d="m85.7 85.5 1.4.4.5 2.6-1.9-3zM76.6 83l3 3.6-4.3-3.4 1.3-.2zm6.4 1.7 1 3.1-2.6-3.5 1.6.4zm-12 1.1h1.9l-2.6.6.7-.6zm13.9-.6.2 1.1-1.2-1.3 1 .2zm-11.3-1.6 2.6 1.4-3.2-.8.6-.6zm15.7 2.8.5 3.1-2.3-3.5 1.8.4z" fill="#3a353a" stroke-width="none" opacity="1"></path></g></g></g><g id="svga-group-eyebrows-right-move" transform="matrix(1,0,0,1,0,0)"><g id="svga-group-eyebrows-right-rotate" transform="matrix(1,1.7453292519943295e-9,-1.7453292519943295e-9,1,1.5158184396568686e-7,-2.0952678880803433e-7)"><g id="svga-group-eyebrows-right"><path id="SvgjsPath7694" d="m107.8 87.2 1.7 3.5 14.6-4.1 8.2 2-5.9-5-3-.6z" fill="#2a232b" stroke-width="none" opacity="1"></path><path id="SvgjsPath7695" d="m114.3 85.5-1.4.4-.5 2.6 1.9-3zm9.1-2.5-3 3.6 4.3-3.4-1.3-.2zm-6.4 1.7-1 3.1 2.6-3.5-1.6.4zm12 1.1h-1.9l2.6.6-.7-.6zm-13.9-.6-.2 1.1 1.1-1.4-.9.3zm11.3-1.6-2.6 1.4 3.2-.8-.6-.6zm-15.7 2.8-.5 3.1 2.3-3.5-1.8.4z" fill="#3a353a" stroke-width="none" opacity="1"></path></g></g></g><g id="svga-group-nose-single-move" transform="matrix(1,0,0,1,0,0)"><g id="svga-group-nose-single"><path id="SvgjsPath7910" d="m104.26 110.12-1.71-13.72.96 12.74-.75-.19 5.77 8.81-2.05 1.51-1.13-1.32.25-1.17-4.51 3.91h-2.1l-4.51-3.91.25 1.17-1.13 1.32-2.04-1.51 5.76-8.81-.75.19 1.17-19.97-1.92 20.95-5.1 7.73 3.34 2.45 1.26-1.76 3.67 3.42h2.1l3.68-3.42 1.25 1.76 3.34-2.45z" fill="#b86934" stroke-width="none" opacity="1" transform="translate(0 2)"></path><path id="SvgjsPath7911" d="m96.64 116.02 2.07 1.27 2.71.06 2.24-1.02-.27-1.54-3.14-.53-3.45.59z" fill="#dfa077" stroke-width="none" opacity="1" transform="translate(0 2)"></path></g></g><g id="svga-group-hair-front"><path id="SvgjsPath7818" d="m76.4 63.9-4.1 7.4-9.7 13.5-1.2 19.8 4.4 11.6L58 102l-4.8-16.1 2.1-22.1 11.6-14.2 4.9-1.6 6.5-7 18.4-6.3 25.6 4.9 19.9 20.9 4.2 25.8-2.6 6s-2.8 17.4-3.1 18.1-4 7.9-4 7.9l1.6-13.2-1.6-20.3-12.8-9.1-20.9-.2-19.8-7.3-6.8-4.3z" fill="#2a232b" stroke-width="none" opacity="1" stroke="none"></path><path id="SvgjsPath7819" d="m61.5 104.7 1.2-19.8 9.7-13.5 4.1-7.4 6.8 4.3 19.8 7.4 20.9.2 12.8 9.1 1.6 20.3-1.6 13.2s3.7-7.2 4-7.9 3.1-18.1 3.1-18.1l-4.4-9.8-16.3-10.4-22.9-1.8-17.8-8.8-6.7-5.9-4-7.8 2.7 9.8L70 70.2 59.6 84.1 57.9 102l7.9 14.2-4.3-11.5zM70.9 57l-4.6 12.1-8.7 13.4-.7 7.1-.3-7.6 8.2-13.4L70.9 57zm-3.2-2.4-7.9 11-3.5 12.2 2.3-12.9 9.1-10.3zm10.4-.4L90 60.1l18.1 4.3 16.3 2.8 15.4 8.8 3.7 5.2-2.8-6.2-15.6-9.8-17.6-2.2-17.2-4.1-12.2-4.7zm-3.1-4 29.7-.6 20.9 5.1 13.7 8.7 2.6 8.5-4-7.8-12.8-7.5-21-5.1L75 50.2zm.8-2.8 15.1-5.9 28.1 1.2 10.6 8.7-11-6.9-28-1.5-14.8 4.4z" fill="#1b141c" stroke-width="none" opacity="1" stroke="none"></path></g><g id="svga-group-glasses-single-move" transform="matrix(1,0,0,1,0,0)"><g id="svga-group-glasses-single"></g></g></g></g></g><rect id="svga-credit-rect" width="200" height="15" x="0" y="185" fill="#ecf0f1" opacity="0.5" style="display: none;"></rect><text id="svga-credit-text" font-family="Avenir Next, Roboto, Helvetica, Arial, sans-serif" font-size="10px" text-anchor="start" font-weight="400" size="10px" anchor="start" weight="400" fill="#333333" x="33.40447998046875" y="182.60824704170227" style="display: none;"><tspan id="SvgjsTspan7517" dy="13" x="33.40447998046875">Created on AvatarMaker.com</tspan></text></g><defs id="SvgjsDefs7469"></defs></svg>